<?xml version="1.0" encoding="utf-8"?>
<!-- Generator: Adobe Illustrator 21.1.0, SVG Export Plug-In . SVG Version: 6.00 Build 0)  -->
<svg version="1.1" id="Layer_1" xmlns="http://www.w3.org/2000/svg" xmlns:xlink="http://www.w3.org/1999/xlink" x="0px" y="0px"
	 viewBox="0 0 598 148" style="enable-background:new 0 0 598 148;" xml:space="preserve">
<style type="text/css">
	.st0{fill:url(#SVGID_1_);}
	.st1{fill:#FFFFFF;}
</style>
<linearGradient id="SVGID_1_" gradientUnits="userSpaceOnUse" x1="105.5388" y1="143.1881" x2="105.5388" y2="8.0921">
	<stop  offset="0" style="stop-color:#FFE01E"/>
	<stop  offset="0.1373" style="stop-color:#CADD32"/>
	<stop  offset="0.3103" style="stop-color:#8FD848"/>
	<stop  offset="0.4774" style="stop-color:#5ED55B"/>
	<stop  offset="0.634" style="stop-color:#37D269"/>
	<stop  offset="0.7779" style="stop-color:#1CD073"/>
	<stop  offset="0.9044" style="stop-color:#0BCF7A"/>
	<stop  offset="1" style="stop-color:#05CE7C"/>
</linearGradient>
<path class="st0" d="M9.6,69.2L99.2,9.8c3.5-2.3,9.1-2.3,12.6,0l89.6,59.4c5.4,3.6,5.4,9.4,0,12.9l-12,7.9
	c-17.7-27.8-48.7-46.2-84-46.2c-35.3,0-66.3,18.5-84,46.2l-12-7.9C4.2,78.6,4.2,72.7,9.6,69.2z M105.5,68.6
	c-26.7,0-50.1,14.1-63.3,35.1L63,117.5c8.7-14.4,24.5-24,42.6-24c18,0,33.8,9.6,42.6,24l20.7-13.7C155.6,82.7,132.2,68.6,105.5,68.6
	z M105.5,118.2c-9.4,0-17.6,5.2-21.9,12.9l13.8,9.1c2.2,1.8,5,2.9,8.1,2.9c3.1,0,5.9-1.1,8.1-2.9l13.8-9.1
	C123.2,123.5,114.9,118.2,105.5,118.2z"/>
<path class="st1" d="M261.1,75.3l22.5,32.3h-15.8l-17-25c0,8.2,0,16.8,0,25H238V43.8h12.8c0,8.5,0,17,0,25.5l16.1-25.5h14.9
	L261.1,75.3z M305.9,43.8h-12.8v63.9h33V94.9h-20.3V43.8z M364,41.5l26.9,66.2h-14.4l-2.6-6.9h-21.2l-2.5,6.9h-14.5l26.9-66.2H364z
	 M369.2,88.8l-5.8-16.6l-6,16.6H369.2z M408.9,79.3l-13.1-35.5h-14.4l26.9,66.2h1.3l26.9-66.2H422L408.9,79.3z M446.1,107.7h12.8
	V43.8h-12.8V107.7z M510,43.8l-13,22l-13-22h-15.5l22.2,35.1v28.8h12.7V78.9l22.3-35.1H510z M591.8,74.6c0,18.3-14.8,33.1-33.1,33.1
	c-18.3,0-33.1-14.8-33.1-33.1c0-18.3,14.8-33.1,33.1-33.1C577,41.5,591.8,56.3,591.8,74.6z M579.3,74.6c0-11.4-9.2-20.6-20.6-20.6
	s-20.6,9.2-20.6,20.6s9.2,20.6,20.6,20.6S579.3,85.9,579.3,74.6z"/>
</svg>
